<svg width="343" height="446" viewBox="0 0 343 446" fill="none" xmlns="http://www.w3.org/2000/svg">
<path d="M260.312 217.282C285.221 222.788 305.229 235.707 320.337 256.037C335.446 275.944 343 298.816 343 324.652C343 361.925 330.342 391.574 305.025 413.598C280.117 435.199 245.204 446 200.287 446H0V360.208L129.142 353.044C140.035 373.943 163.98 387.794 193.183 387.794C223.936 387.794 251.306 373.748 264.549 353.774H193.183C189.293 353.774 186.141 350.511 186.141 346.484C186.141 342.457 189.293 339.193 193.183 339.193H268.306C269.278 339.178 270.243 339.393 271.123 339.825C273.626 331.5 273.626 322.586 271.123 314.261C270.243 314.693 269.278 314.908 268.306 314.892H193.183C189.293 314.892 186.141 311.629 186.141 307.602C186.141 303.575 189.293 300.312 193.183 300.312H264.55C251.309 280.337 223.936 266.29 193.183 266.29C163.979 266.29 140.034 280.142 129.142 301.041L0 293.877V146.316L129.141 138.931C140.034 159.955 163.98 173.889 193.183 173.889C236.423 173.889 272.998 145.924 273 112.773C272.998 79.6257 236.423 51.6574 193.183 51.6574C163.978 51.6574 140.033 65.5922 129.141 86.6157L0 79.2306V0H193.55C237.242 0 271.337 10.377 295.837 31.131C320.746 51.8851 333.2 80.0513 333.2 115.63C333.2 141.89 326.462 163.703 312.987 181.068C299.921 198.434 282.362 210.505 260.312 217.282Z" fill="black"/>
</svg>
