<svg viewBox="0 0 187 59" xmlns="http://www.w3.org/2000/svg">
<path d="M34.9107 28.7436C38.2512 29.472 40.9345 31.1809 42.9607 33.8704C44.9869 36.5038 46 39.5294 46 42.9473C46 47.878 44.3024 51.8001 40.9071 54.7137C37.5667 57.5712 32.8845 59 26.8607 59H0V47.6508L17.3193 46.7032C18.7802 49.4678 21.9915 51.3002 25.908 51.3002C30.0322 51.3002 33.7028 49.442 35.4789 46.7997H25.908C25.3863 46.7997 24.9635 46.368 24.9635 45.8353C24.9635 45.3025 25.3863 44.8709 25.908 44.8709H35.9827C36.1131 44.8688 36.2425 44.8973 36.3605 44.9544C36.6962 43.8531 36.6962 42.674 36.3605 41.5727C36.2425 41.6298 36.1131 41.6582 35.9827 41.6562H25.908C25.3863 41.6562 24.9635 41.2245 24.9635 40.6918C24.9635 40.159 25.3863 39.7273 25.908 39.7273H35.479C33.7032 37.085 30.0323 35.2268 25.908 35.2268C21.9914 35.2268 18.78 37.0592 17.3193 39.8238L0 38.8761V19.3557L17.3192 18.3787C18.7801 21.1599 21.9914 23.0033 25.9079 23.0033C31.7068 23.0033 36.6119 19.3038 36.6122 14.9184C36.6119 10.5335 31.7068 6.83361 25.9079 6.83361C21.9913 6.83361 18.78 8.677 17.3192 11.4581L0 10.4812V0H25.9571C31.8167 0 36.3893 1.37274 39.675 4.11823C43.0155 6.86372 44.6857 10.5897 44.6857 15.2963C44.6857 18.7702 43.7821 21.6557 41.975 23.953C40.2226 26.2502 37.8679 27.8471 34.9107 28.7436Z"/>
<path d="M57.88 20.04C56.08 20.04 54.6 19.52 53.44 18.48C52.32 17.4 51.76 16.08 51.76 14.52C51.76 12.92 52.32 11.6 53.44 10.56C54.6 9.48 56.08 8.94 57.88 8.94C59.64 8.94 61.08 9.48 62.2 10.56C63.36 11.6 63.94 12.92 63.94 14.52C63.94 16.08 63.36 17.4 62.2 18.48C61.08 19.52 59.64 20.04 57.88 20.04ZM62.98 23.52V57H52.72V23.52H62.98Z"/>
<path d="M87.8153 23.16C91.7353 23.16 94.8553 24.44 97.1753 27C99.5353 29.52 100.715 33 100.715 37.44V57H90.5153V38.82C90.5153 36.58 89.9353 34.84 88.7753 33.6C87.6153 32.36 86.0553 31.74 84.0953 31.74C82.1353 31.74 80.5753 32.36 79.4153 33.6C78.2553 34.84 77.6753 36.58 77.6753 38.82V57H67.4153V23.52H77.6753V27.96C78.7153 26.48 80.1153 25.32 81.8753 24.48C83.6353 23.6 85.6153 23.16 87.8153 23.16Z"/>
<path d="M102.805 40.26C102.805 36.78 103.505 33.74 104.905 31.14C106.345 28.54 108.325 26.54 110.845 25.14C113.405 23.74 116.325 23.04 119.605 23.04C123.805 23.04 127.305 24.14 130.105 26.34C132.945 28.54 134.805 31.64 135.685 35.64H124.765C123.845 33.08 122.065 31.8 119.425 31.8C117.545 31.8 116.045 32.54 114.925 34.02C113.805 35.46 113.245 37.54 113.245 40.26C113.245 42.98 113.805 45.08 114.925 46.56C116.045 48 117.545 48.72 119.425 48.72C122.065 48.72 123.845 47.44 124.765 44.88H135.685C134.805 48.8 132.945 51.88 130.105 54.12C127.265 56.36 123.765 57.48 119.605 57.48C116.325 57.48 113.405 56.78 110.845 55.38C108.325 53.98 106.345 51.98 104.905 49.38C103.505 46.78 102.805 43.74 102.805 40.26Z"/>
<path d="M158.753 23.16C162.593 23.16 165.673 24.44 167.993 27C170.313 29.52 171.473 33 171.473 37.44V57H161.273V38.82C161.273 36.58 160.693 34.84 159.533 33.6C158.373 32.36 156.813 31.74 154.853 31.74C152.893 31.74 151.333 32.36 150.173 33.6C149.013 34.84 148.433 36.58 148.433 38.82V57H138.173V12.6H148.433V28.02C149.473 26.54 150.893 25.36 152.693 24.48C154.493 23.6 156.513 23.16 158.753 23.16Z"/>
<path d="M180.763 20.04C178.963 20.04 177.483 19.52 176.323 18.48C175.203 17.4 174.643 16.08 174.643 14.52C174.643 12.92 175.203 11.6 176.323 10.56C177.483 9.48 178.963 8.94 180.763 8.94C182.523 8.94 183.963 9.48 185.083 10.56C186.243 11.6 186.823 12.92 186.823 14.52C186.823 16.08 186.243 17.4 185.083 18.48C183.963 19.52 182.523 20.04 180.763 20.04ZM185.863 23.52V57H175.603V23.52H185.863Z"/>
</svg>
